<mxfile host="app.diagrams.net" agent="Mozilla/5.0 (X11; Linux x86_64) AppleWebKit/537.36 (KHTML, like Gecko) Chrome/142.0.0.0 Safari/537.36" version="28.2.8">
  <diagram name="Page-1" id="7xXGCG0XLX7iE5gmjvC3">
    <mxGraphModel dx="3443" dy="1260" grid="1" gridSize="10" guides="1" tooltips="1" connect="1" arrows="1" fold="1" page="1" pageScale="1" pageWidth="850" pageHeight="1100" math="0" shadow="0">
      <root>
        <mxCell id="0" />
        <mxCell id="1" parent="0" />
        <UserObject label="" mermaidData="{&#xa;  &quot;data&quot;: &quot;---\ntitle: Sequence Diagram — Transfer\n---\nsequenceDiagram\n    title Banking Management System - Sequence Diagram (Transfer Funds)\n\n    participant C as 🧑‍💻 Customer (Client)\n    participant S as 💻 Server\n    participant CM as CustomerModule\n    participant DS as 🗄️ DataStore (customers.txt, transactions.txt)\n\n    C-&gt;&gt;S: Login (Customer ID, Password)\n    S--&gt;&gt;C: ✅ Login Successful\n\n    C-&gt;&gt;S: Select \&quot;Transfer Funds\&quot;\n    S-&gt;&gt;CM: handleCustomerMenu(username)\n\n    CM-&gt;&gt;DS: getBalance(fromUser)\n    DS--&gt;&gt;CM: Current Balance Returned\n\n    C-&gt;&gt;S: Provide Recipient Username &amp; Amount\n    S-&gt;&gt;CM: transferFunds(fromUser, toUser, amount)\n    CM-&gt;&gt;DS: Read sender &amp; receiver records\n    DS--&gt;&gt;CM: Balances retrieved\n\n    CM-&gt;&gt;DS: Update both account balances atomically\n    CM-&gt;&gt;DS: Append transactions (transfer_in/out)\n    DS--&gt;&gt;CM: Success confirmation\n\n    CM--&gt;&gt;S: \&quot;✅ Transfer completed\&quot;\n    S--&gt;&gt;C: Display new balance and confirmation message\n&quot;&#xa;}" id="Iqg5X4R5DARuX7PHI878-1">
          <mxCell style="shape=image;noLabel=1;verticalAlign=top;imageAspect=1;image=data:image/svg+xml,PHN2ZyBpZD0iZ2VNZXJtYWlkT3V0cHV0LTE3NjE5MTk0NTI4NjMiIHdpZHRoPSIxMDAlIiB4bWxucz0iaHR0cDovL3d3dy53My5vcmcvMjAwMC9zdmciIHN0eWxlPSJtYXgtd2lkdGg6IDE0OTkuNXB4OyIgdmlld0JveD0iLTUwIC01MCAxNDk5LjUgOTMxIiByb2xlPSJncmFwaGljcy1kb2N1bWVudCBkb2N1bWVudCIgYXJpYS1yb2xlZGVzY3JpcHRpb249InNlcXVlbmNlIj48Zz48cmVjdCB4PSIxMDQ5LjUiIHk9IjgwNSIgZmlsbD0iI2VhZWFlYSIgc3Ryb2tlPSIjNjY2IiB3aWR0aD0iMzUwIiBoZWlnaHQ9IjY1IiBuYW1lPSJEUyIgcng9IjMiIHJ5PSIzIiBjbGFzcz0iYWN0b3IgYWN0b3ItYm90dG9tIj48L3JlY3Q+PHRleHQgeD0iMTIyNC41IiB5PSI4MzcuNSIgZG9taW5hbnQtYmFzZWxpbmU9ImNlbnRyYWwiIGFsaWdubWVudC1iYXNlbGluZT0iY2VudHJhbCIgY2xhc3M9ImFjdG9yIGFjdG9yLWJveCIgc3R5bGU9InRleHQtYW5jaG9yOiBtaWRkbGU7IGZvbnQtc2l6ZTogMTZweDsgZm9udC13ZWlnaHQ6IDQwMDsiPjx0c3BhbiB4PSIxMjI0LjUiIGR5PSIwIj7wn5eE77iPIERhdGFTdG9yZSAoY3VzdG9tZXJzLnR4dCwgdHJhbnNhY3Rpb25zLnR4dCk8L3RzcGFuPjwvdGV4dD48L2c+PGc+PHJlY3QgeD0iNzg0LjUiIHk9IjgwNSIgZmlsbD0iI2VhZWFlYSIgc3Ryb2tlPSIjNjY2IiB3aWR0aD0iMTUwIiBoZWlnaHQ9IjY1IiBuYW1lPSJDTSIgcng9IjMiIHJ5PSIzIiBjbGFzcz0iYWN0b3IgYWN0b3ItYm90dG9tIj48L3JlY3Q+PHRleHQgeD0iODU5LjUiIHk9IjgzNy41IiBkb21pbmFudC1iYXNlbGluZT0iY2VudHJhbCIgYWxpZ25tZW50LWJhc2VsaW5lPSJjZW50cmFsIiBjbGFzcz0iYWN0b3IgYWN0b3ItYm94IiBzdHlsZT0idGV4dC1hbmNob3I6IG1pZGRsZTsgZm9udC1zaXplOiAxNnB4OyBmb250LXdlaWdodDogNDAwOyI+PHRzcGFuIHg9Ijg1OS41IiBkeT0iMCI+Q3VzdG9tZXJNb2R1bGU8L3RzcGFuPjwvdGV4dD48L2c+PGc+PHJlY3QgeD0iNDE3LjUiIHk9IjgwNSIgZmlsbD0iI2VhZWFlYSIgc3Ryb2tlPSIjNjY2IiB3aWR0aD0iMTUwIiBoZWlnaHQ9IjY1IiBuYW1lPSJTIiByeD0iMyIgcnk9IjMiIGNsYXNzPSJhY3RvciBhY3Rvci1ib3R0b20iPjwvcmVjdD48dGV4dCB4PSI0OTIuNSIgeT0iODM3LjUiIGRvbWluYW50LWJhc2VsaW5lPSJjZW50cmFsIiBhbGlnbm1lbnQtYmFzZWxpbmU9ImNlbnRyYWwiIGNsYXNzPSJhY3RvciBhY3Rvci1ib3giIHN0eWxlPSJ0ZXh0LWFuY2hvcjogbWlkZGxlOyBmb250LXNpemU6IDE2cHg7IGZvbnQtd2VpZ2h0OiA0MDA7Ij48dHNwYW4geD0iNDkyLjUiIGR5PSIwIj7wn5K7IFNlcnZlcjwvdHNwYW4+PC90ZXh0PjwvZz48Zz48cmVjdCB4PSIwIiB5PSI4MDUiIGZpbGw9IiNlYWVhZWEiIHN0cm9rZT0iIzY2NiIgd2lkdGg9IjE2OSIgaGVpZ2h0PSI2NSIgbmFtZT0iQyIgcng9IjMiIHJ5PSIzIiBjbGFzcz0iYWN0b3IgYWN0b3ItYm90dG9tIj48L3JlY3Q+PHRleHQgeD0iODQuNSIgeT0iODM3LjUiIGRvbWluYW50LWJhc2VsaW5lPSJjZW50cmFsIiBhbGlnbm1lbnQtYmFzZWxpbmU9ImNlbnRyYWwiIGNsYXNzPSJhY3RvciBhY3Rvci1ib3giIHN0eWxlPSJ0ZXh0LWFuY2hvcjogbWlkZGxlOyBmb250LXNpemU6IDE2cHg7IGZvbnQtd2VpZ2h0OiA0MDA7Ij48dHNwYW4geD0iODQuNSIgZHk9IjAiPvCfp5HigI3wn5K7IEN1c3RvbWVyIChDbGllbnQpPC90c3Bhbj48L3RleHQ+PC9nPjxnPjxsaW5lIGlkPSJhY3RvcjExIiB4MT0iMTIyNC41IiB5MT0iNjUiIHgyPSIxMjI0LjUiIHkyPSI4MDUiIGNsYXNzPSJhY3Rvci1saW5lIDIwMCIgc3Ryb2tlLXdpZHRoPSIwLjVweCIgc3Ryb2tlPSIjOTk5IiBuYW1lPSJEUyI+PC9saW5lPjxnIGlkPSJyb290LTExIj48cmVjdCB4PSIxMDQ5LjUiIHk9IjAiIGZpbGw9IiNlYWVhZWEiIHN0cm9rZT0iIzY2NiIgd2lkdGg9IjM1MCIgaGVpZ2h0PSI2NSIgbmFtZT0iRFMiIHJ4PSIzIiByeT0iMyIgY2xhc3M9ImFjdG9yIGFjdG9yLXRvcCI+PC9yZWN0Pjx0ZXh0IHg9IjEyMjQuNSIgeT0iMzIuNSIgZG9taW5hbnQtYmFzZWxpbmU9ImNlbnRyYWwiIGFsaWdubWVudC1iYXNlbGluZT0iY2VudHJhbCIgY2xhc3M9ImFjdG9yIGFjdG9yLWJveCIgc3R5bGU9InRleHQtYW5jaG9yOiBtaWRkbGU7IGZvbnQtc2l6ZTogMTZweDsgZm9udC13ZWlnaHQ6IDQwMDsiPjx0c3BhbiB4PSIxMjI0LjUiIGR5PSIwIj7wn5eE77iPIERhdGFTdG9yZSAoY3VzdG9tZXJzLnR4dCwgdHJhbnNhY3Rpb25zLnR4dCk8L3RzcGFuPjwvdGV4dD48L2c+PC9nPjxnPjxsaW5lIGlkPSJhY3RvcjEwIiB4MT0iODU5LjUiIHkxPSI2NSIgeDI9Ijg1OS41IiB5Mj0iODA1IiBjbGFzcz0iYWN0b3ItbGluZSAyMDAiIHN0cm9rZS13aWR0aD0iMC41cHgiIHN0cm9rZT0iIzk5OSIgbmFtZT0iQ00iPjwvbGluZT48ZyBpZD0icm9vdC0xMCI+PHJlY3QgeD0iNzg0LjUiIHk9IjAiIGZpbGw9IiNlYWVhZWEiIHN0cm9rZT0iIzY2NiIgd2lkdGg9IjE1MCIgaGVpZ2h0PSI2NSIgbmFtZT0iQ00iIHJ4PSIzIiByeT0iMyIgY2xhc3M9ImFjdG9yIGFjdG9yLXRvcCI+PC9yZWN0Pjx0ZXh0IHg9Ijg1OS41IiB5PSIzMi41IiBkb21pbmFudC1iYXNlbGluZT0iY2VudHJhbCIgYWxpZ25tZW50LWJhc2VsaW5lPSJjZW50cmFsIiBjbGFzcz0iYWN0b3IgYWN0b3ItYm94IiBzdHlsZT0idGV4dC1hbmNob3I6IG1pZGRsZTsgZm9udC1zaXplOiAxNnB4OyBmb250LXdlaWdodDogNDAwOyI+PHRzcGFuIHg9Ijg1OS41IiBkeT0iMCI+Q3VzdG9tZXJNb2R1bGU8L3RzcGFuPjwvdGV4dD48L2c+PC9nPjxnPjxsaW5lIGlkPSJhY3RvcjkiIHgxPSI0OTIuNSIgeTE9IjY1IiB4Mj0iNDkyLjUiIHkyPSI4MDUiIGNsYXNzPSJhY3Rvci1saW5lIDIwMCIgc3Ryb2tlLXdpZHRoPSIwLjVweCIgc3Ryb2tlPSIjOTk5IiBuYW1lPSJTIj48L2xpbmU+PGcgaWQ9InJvb3QtOSI+PHJlY3QgeD0iNDE3LjUiIHk9IjAiIGZpbGw9IiNlYWVhZWEiIHN0cm9rZT0iIzY2NiIgd2lkdGg9IjE1MCIgaGVpZ2h0PSI2NSIgbmFtZT0iUyIgcng9IjMiIHJ5PSIzIiBjbGFzcz0iYWN0b3IgYWN0b3ItdG9wIj48L3JlY3Q+PHRleHQgeD0iNDkyLjUiIHk9IjMyLjUiIGRvbWluYW50LWJhc2VsaW5lPSJjZW50cmFsIiBhbGlnbm1lbnQtYmFzZWxpbmU9ImNlbnRyYWwiIGNsYXNzPSJhY3RvciBhY3Rvci1ib3giIHN0eWxlPSJ0ZXh0LWFuY2hvcjogbWlkZGxlOyBmb250LXNpemU6IDE2cHg7IGZvbnQtd2VpZ2h0OiA0MDA7Ij48dHNwYW4geD0iNDkyLjUiIGR5PSIwIj7wn5K7IFNlcnZlcjwvdHNwYW4+PC90ZXh0PjwvZz48L2c+PGc+PGxpbmUgaWQ9ImFjdG9yOCIgeDE9Ijg0LjUiIHkxPSI2NSIgeDI9Ijg0LjUiIHkyPSI4MDUiIGNsYXNzPSJhY3Rvci1saW5lIDIwMCIgc3Ryb2tlLXdpZHRoPSIwLjVweCIgc3Ryb2tlPSIjOTk5IiBuYW1lPSJDIj48L2xpbmU+PGcgaWQ9InJvb3QtOCI+PHJlY3QgeD0iMCIgeT0iMCIgZmlsbD0iI2VhZWFlYSIgc3Ryb2tlPSIjNjY2IiB3aWR0aD0iMTY5IiBoZWlnaHQ9IjY1IiBuYW1lPSJDIiByeD0iMyIgcnk9IjMiIGNsYXNzPSJhY3RvciBhY3Rvci10b3AiPjwvcmVjdD48dGV4dCB4PSI4NC41IiB5PSIzMi41IiBkb21pbmFudC1iYXNlbGluZT0iY2VudHJhbCIgYWxpZ25tZW50LWJhc2VsaW5lPSJjZW50cmFsIiBjbGFzcz0iYWN0b3IgYWN0b3ItYm94IiBzdHlsZT0idGV4dC1hbmNob3I6IG1pZGRsZTsgZm9udC1zaXplOiAxNnB4OyBmb250LXdlaWdodDogNDAwOyI+PHRzcGFuIHg9Ijg0LjUiIGR5PSIwIj7wn6eR4oCN8J+SuyBDdXN0b21lciAoQ2xpZW50KTwvdHNwYW4+PC90ZXh0PjwvZz48L2c+PHN0eWxlPiNnZU1lcm1haWRPdXRwdXQtMTc2MTkxOTQ1Mjg2M3tmb250LWZhbWlseToidHJlYnVjaGV0IG1zIix2ZXJkYW5hLGFyaWFsLHNhbnMtc2VyaWY7Zm9udC1zaXplOjE2cHg7ZmlsbDojMDAwMDAwO31Aa2V5ZnJhbWVzIGVkZ2UtYW5pbWF0aW9uLWZyYW1le2Zyb217c3Ryb2tlLWRhc2hvZmZzZXQ6MDt9fUBrZXlmcmFtZXMgZGFzaHt0b3tzdHJva2UtZGFzaG9mZnNldDowO319I2dlTWVybWFpZE91dHB1dC0xNzYxOTE5NDUyODYzIC5lZGdlLWFuaW1hdGlvbi1zbG93e3N0cm9rZS1kYXNoYXJyYXk6OSw1IWltcG9ydGFudDtzdHJva2UtZGFzaG9mZnNldDo5MDA7YW5pbWF0aW9uOmRhc2ggNTBzIGxpbmVhciBpbmZpbml0ZTtzdHJva2UtbGluZWNhcDpyb3VuZDt9I2dlTWVybWFpZE91dHB1dC0xNzYxOTE5NDUyODYzIC5lZGdlLWFuaW1hdGlvbi1mYXN0e3N0cm9rZS1kYXNoYXJyYXk6OSw1IWltcG9ydGFudDtzdHJva2UtZGFzaG9mZnNldDo5MDA7YW5pbWF0aW9uOmRhc2ggMjBzIGxpbmVhciBpbmZpbml0ZTtzdHJva2UtbGluZWNhcDpyb3VuZDt9I2dlTWVybWFpZE91dHB1dC0xNzYxOTE5NDUyODYzIC5lcnJvci1pY29ue2ZpbGw6IzU1MjIyMjt9I2dlTWVybWFpZE91dHB1dC0xNzYxOTE5NDUyODYzIC5lcnJvci10ZXh0e2ZpbGw6IzU1MjIyMjtzdHJva2U6IzU1MjIyMjt9I2dlTWVybWFpZE91dHB1dC0xNzYxOTE5NDUyODYzIC5lZGdlLXRoaWNrbmVzcy1ub3JtYWx7c3Ryb2tlLXdpZHRoOjFweDt9I2dlTWVybWFpZE91dHB1dC0xNzYxOTE5NDUyODYzIC5lZGdlLXRoaWNrbmVzcy10aGlja3tzdHJva2Utd2lkdGg6My41cHg7fSNnZU1lcm1haWRPdXRwdXQtMTc2MTkxOTQ1Mjg2MyAuZWRnZS1wYXR0ZXJuLXNvbGlke3N0cm9rZS1kYXNoYXJyYXk6MDt9I2dlTWVybWFpZE91dHB1dC0xNzYxOTE5NDUyODYzIC5lZGdlLXRoaWNrbmVzcy1pbnZpc2libGV7c3Ryb2tlLXdpZHRoOjA7ZmlsbDpub25lO30jZ2VNZXJtYWlkT3V0cHV0LTE3NjE5MTk0NTI4NjMgLmVkZ2UtcGF0dGVybi1kYXNoZWR7c3Ryb2tlLWRhc2hhcnJheTozO30jZ2VNZXJtYWlkT3V0cHV0LTE3NjE5MTk0NTI4NjMgLmVkZ2UtcGF0dGVybi1kb3R0ZWR7c3Ryb2tlLWRhc2hhcnJheToyO30jZ2VNZXJtYWlkT3V0cHV0LTE3NjE5MTk0NTI4NjMgLm1hcmtlcntmaWxsOiM2NjY7c3Ryb2tlOiM2NjY7fSNnZU1lcm1haWRPdXRwdXQtMTc2MTkxOTQ1Mjg2MyAubWFya2VyLmNyb3Nze3N0cm9rZTojNjY2O30jZ2VNZXJtYWlkT3V0cHV0LTE3NjE5MTk0NTI4NjMgc3Zne2ZvbnQtZmFtaWx5OiJ0cmVidWNoZXQgbXMiLHZlcmRhbmEsYXJpYWwsc2Fucy1zZXJpZjtmb250LXNpemU6MTZweDt9I2dlTWVybWFpZE91dHB1dC0xNzYxOTE5NDUyODYzIHB7bWFyZ2luOjA7fSNnZU1lcm1haWRPdXRwdXQtMTc2MTkxOTQ1Mjg2MyAuYWN0b3J7c3Ryb2tlOmhzbCgwLCAwJSwgODMlKTtmaWxsOiNlZWU7fSNnZU1lcm1haWRPdXRwdXQtMTc2MTkxOTQ1Mjg2MyB0ZXh0LmFjdG9yJmd0O3RzcGFue2ZpbGw6IzMzMztzdHJva2U6bm9uZTt9I2dlTWVybWFpZE91dHB1dC0xNzYxOTE5NDUyODYzIC5hY3Rvci1saW5le3N0cm9rZTpoc2woMCwgMCUsIDgzJSk7fSNnZU1lcm1haWRPdXRwdXQtMTc2MTkxOTQ1Mjg2MyAuaW5uZXJBcmN7c3Ryb2tlLXdpZHRoOjEuNTtzdHJva2UtZGFzaGFycmF5Om5vbmU7fSNnZU1lcm1haWRPdXRwdXQtMTc2MTkxOTQ1Mjg2MyAubWVzc2FnZUxpbmUwe3N0cm9rZS13aWR0aDoxLjU7c3Ryb2tlLWRhc2hhcnJheTpub25lO3N0cm9rZTojMzMzO30jZ2VNZXJtYWlkT3V0cHV0LTE3NjE5MTk0NTI4NjMgLm1lc3NhZ2VMaW5lMXtzdHJva2Utd2lkdGg6MS41O3N0cm9rZS1kYXNoYXJyYXk6MiwyO3N0cm9rZTojMzMzO30jZ2VNZXJtYWlkT3V0cHV0LTE3NjE5MTk0NTI4NjMgI2Fycm93aGVhZCBwYXRoe2ZpbGw6IzMzMztzdHJva2U6IzMzMzt9I2dlTWVybWFpZE91dHB1dC0xNzYxOTE5NDUyODYzIC5zZXF1ZW5jZU51bWJlcntmaWxsOndoaXRlO30jZ2VNZXJtYWlkT3V0cHV0LTE3NjE5MTk0NTI4NjMgI3NlcXVlbmNlbnVtYmVye2ZpbGw6IzMzMzt9I2dlTWVybWFpZE91dHB1dC0xNzYxOTE5NDUyODYzICNjcm9zc2hlYWQgcGF0aHtmaWxsOiMzMzM7c3Ryb2tlOiMzMzM7fSNnZU1lcm1haWRPdXRwdXQtMTc2MTkxOTQ1Mjg2MyAubWVzc2FnZVRleHR7ZmlsbDojMzMzO3N0cm9rZTpub25lO30jZ2VNZXJtYWlkT3V0cHV0LTE3NjE5MTk0NTI4NjMgLmxhYmVsQm94e3N0cm9rZTpoc2woMCwgMCUsIDgzJSk7ZmlsbDojZWVlO30jZ2VNZXJtYWlkT3V0cHV0LTE3NjE5MTk0NTI4NjMgLmxhYmVsVGV4dCwjZ2VNZXJtYWlkT3V0cHV0LTE3NjE5MTk0NTI4NjMgLmxhYmVsVGV4dCZndDt0c3BhbntmaWxsOiMzMzM7c3Ryb2tlOm5vbmU7fSNnZU1lcm1haWRPdXRwdXQtMTc2MTkxOTQ1Mjg2MyAubG9vcFRleHQsI2dlTWVybWFpZE91dHB1dC0xNzYxOTE5NDUyODYzIC5sb29wVGV4dCZndDt0c3BhbntmaWxsOiMzMzM7c3Ryb2tlOm5vbmU7fSNnZU1lcm1haWRPdXRwdXQtMTc2MTkxOTQ1Mjg2MyAubG9vcExpbmV7c3Ryb2tlLXdpZHRoOjJweDtzdHJva2UtZGFzaGFycmF5OjIsMjtzdHJva2U6aHNsKDAsIDAlLCA4MyUpO2ZpbGw6aHNsKDAsIDAlLCA4MyUpO30jZ2VNZXJtYWlkT3V0cHV0LTE3NjE5MTk0NTI4NjMgLm5vdGV7c3Ryb2tlOiM5OTk7ZmlsbDojNjY2O30jZ2VNZXJtYWlkT3V0cHV0LTE3NjE5MTk0NTI4NjMgLm5vdGVUZXh0LCNnZU1lcm1haWRPdXRwdXQtMTc2MTkxOTQ1Mjg2MyAubm90ZVRleHQmZ3Q7dHNwYW57ZmlsbDojZmZmO3N0cm9rZTpub25lO30jZ2VNZXJtYWlkT3V0cHV0LTE3NjE5MTk0NTI4NjMgLmFjdGl2YXRpb24we2ZpbGw6I2Y0ZjRmNDtzdHJva2U6IzY2Njt9I2dlTWVybWFpZE91dHB1dC0xNzYxOTE5NDUyODYzIC5hY3RpdmF0aW9uMXtmaWxsOiNmNGY0ZjQ7c3Ryb2tlOiM2NjY7fSNnZU1lcm1haWRPdXRwdXQtMTc2MTkxOTQ1Mjg2MyAuYWN0aXZhdGlvbjJ7ZmlsbDojZjRmNGY0O3N0cm9rZTojNjY2O30jZ2VNZXJtYWlkT3V0cHV0LTE3NjE5MTk0NTI4NjMgLmFjdG9yUG9wdXBNZW51e3Bvc2l0aW9uOmFic29sdXRlO30jZ2VNZXJtYWlkT3V0cHV0LTE3NjE5MTk0NTI4NjMgLmFjdG9yUG9wdXBNZW51UGFuZWx7cG9zaXRpb246YWJzb2x1dGU7ZmlsbDojZWVlO2JveC1zaGFkb3c6MHB4IDhweCAxNnB4IDBweCByZ2JhKDAsMCwwLDAuMik7ZmlsdGVyOmRyb3Atc2hhZG93KDNweCA1cHggMnB4IHJnYigwIDAgMCAvIDAuNCkpO30jZ2VNZXJtYWlkT3V0cHV0LTE3NjE5MTk0NTI4NjMgLmFjdG9yLW1hbiBsaW5le3N0cm9rZTpoc2woMCwgMCUsIDgzJSk7ZmlsbDojZWVlO30jZ2VNZXJtYWlkT3V0cHV0LTE3NjE5MTk0NTI4NjMgLmFjdG9yLW1hbiBjaXJjbGUsI2dlTWVybWFpZE91dHB1dC0xNzYxOTE5NDUyODYzIGxpbmV7c3Ryb2tlOmhzbCgwLCAwJSwgODMlKTtmaWxsOiNlZWU7c3Ryb2tlLXdpZHRoOjJweDt9I2dlTWVybWFpZE91dHB1dC0xNzYxOTE5NDUyODYzIDpyb290ey0tbWVybWFpZC1mb250LWZhbWlseToidHJlYnVjaGV0IG1zIix2ZXJkYW5hLGFyaWFsLHNhbnMtc2VyaWY7fTwvc3R5bGU+PGc+PC9nPjxkZWZzPjxzeW1ib2wgaWQ9ImNvbXB1dGVyIiB3aWR0aD0iMjQiIGhlaWdodD0iMjQiPjxwYXRoIHRyYW5zZm9ybT0ic2NhbGUoLjUpIiBkPSJNMiAydjEzaDIwdi0xM2gtMjB6bTE4IDExaC0xNnYtOWgxNnY5em0tMTAuMjI4IDZsLjQ2Ni0xaDMuNTI0bC40NjcgMWgtNC40NTd6bTE0LjIyOCAzaC0yNGwyLTZoMi4xMDRsLTEuMzMgNGgxOC40NWwtMS4yOTctNGgyLjA3M2wyIDZ6bS01LTEwaC0xNHYtN2gxNHY3eiI+PC9wYXRoPjwvc3ltYm9sPjwvZGVmcz48ZGVmcz48c3ltYm9sIGlkPSJkYXRhYmFzZSIgZmlsbC1ydWxlPSJldmVub2RkIiBjbGlwLXJ1bGU9ImV2ZW5vZGQiPjxwYXRoIHRyYW5zZm9ybT0ic2NhbGUoLjUpIiBkPSJNMTIuMjU4LjAwMWwuMjU2LjAwNC4yNTUuMDA1LjI1My4wMDguMjUxLjAxLjI0OS4wMTIuMjQ3LjAxNS4yNDYuMDE2LjI0Mi4wMTkuMjQxLjAyLjIzOS4wMjMuMjM2LjAyNC4yMzMuMDI3LjIzMS4wMjguMjI5LjAzMS4yMjUuMDMyLjIyMy4wMzQuMjIuMDM2LjIxNy4wMzguMjE0LjA0LjIxMS4wNDEuMjA4LjA0My4yMDUuMDQ1LjIwMS4wNDYuMTk4LjA0OC4xOTQuMDUuMTkxLjA1MS4xODcuMDUzLjE4My4wNTQuMTguMDU2LjE3NS4wNTcuMTcyLjA1OS4xNjguMDYuMTYzLjA2MS4xNi4wNjMuMTU1LjA2NC4xNS4wNjYuMDc0LjAzMy4wNzMuMDMzLjA3MS4wMzQuMDcuMDM0LjA2OS4wMzUuMDY4LjAzNS4wNjcuMDM1LjA2Ni4wMzUuMDY0LjAzNi4wNjQuMDM2LjA2Mi4wMzYuMDYuMDM2LjA2LjAzNy4wNTguMDM3LjA1OC4wMzcuMDU1LjAzOC4wNTUuMDM4LjA1My4wMzguMDUyLjAzOC4wNTEuMDM5LjA1LjAzOS4wNDguMDM5LjA0Ny4wMzkuMDQ1LjA0LjA0NC4wNC4wNDMuMDQuMDQxLjA0LjA0LjA0MS4wMzkuMDQxLjAzNy4wNDEuMDM2LjA0MS4wMzQuMDQxLjAzMy4wNDIuMDMyLjA0Mi4wMy4wNDIuMDI5LjA0Mi4wMjcuMDQyLjAyNi4wNDMuMDI0LjA0My4wMjMuMDQzLjAyMS4wNDMuMDIuMDQzLjAxOC4wNDQuMDE3LjA0My4wMTUuMDQ0LjAxMy4wNDQuMDEyLjA0NC4wMTEuMDQ1LjAwOS4wNDQuMDA3LjA0NS4wMDYuMDQ1LjAwNC4wNDUuMDAyLjA0NS4wMDEuMDQ1djE3bC0uMDAxLjA0NS0uMDAyLjA0NS0uMDA0LjA0NS0uMDA2LjA0NS0uMDA3LjA0NS0uMDA5LjA0NC0uMDExLjA0NS0uMDEyLjA0NC0uMDEzLjA0NC0uMDE1LjA0NC0uMDE3LjA0My0uMDE4LjA0NC0uMDIuMDQzLS4wMjEuMDQzLS4wMjMuMDQzLS4wMjQuMDQzLS4wMjYuMDQzLS4wMjcuMDQyLS4wMjkuMDQyLS4wMy4wNDItLjAzMi4wNDItLjAzMy4wNDItLjAzNC4wNDEtLjAzNi4wNDEtLjAzNy4wNDEtLjAzOS4wNDEtLjA0LjA0MS0uMDQxLjA0LS4wNDMuMDQtLjA0NC4wNC0uMDQ1LjA0LS4wNDcuMDM5LS4wNDguMDM5LS4wNS4wMzktLjA1MS4wMzktLjA1Mi4wMzgtLjA1My4wMzgtLjA1NS4wMzgtLjA1NS4wMzgtLjA1OC4wMzctLjA1OC4wMzctLjA2LjAzNy0uMDYuMDM2LS4wNjIuMDM2LS4wNjQuMDM2LS4wNjQuMDM2LS4wNjYuMDM1LS4wNjcuMDM1LS4wNjguMDM1LS4wNjkuMDM1LS4wNy4wMzQtLjA3MS4wMzQtLjA3My4wMzMtLjA3NC4wMzMtLjE1LjA2Ni0uMTU1LjA2NC0uMTYuMDYzLS4xNjMuMDYxLS4xNjguMDYtLjE3Mi4wNTktLjE3NS4wNTctLjE4LjA1Ni0uMTgzLjA1NC0uMTg3LjA1My0uMTkxLjA1MS0uMTk0LjA1LS4xOTguMDQ4LS4yMDEuMDQ2LS4yMDUuMDQ1LS4yMDguMDQzLS4yMTEuMDQxLS4yMTQuMDQtLjIxNy4wMzgtLjIyLjAzNi0uMjIzLjAzNC0uMjI1LjAzMi0uMjI5LjAzMS0uMjMxLjAyOC0uMjMzLjAyNy0uMjM2LjAyNC0uMjM5LjAyMy0uMjQxLjAyLS4yNDIuMDE5LS4yNDYuMDE2LS4yNDcuMDE1LS4yNDkuMDEyLS4yNTEuMDEtLjI1My4wMDgtLjI1NS4wMDUtLjI1Ni4wMDQtLjI1OC4wMDEtLjI1OC0uMDAxLS4yNTYtLjAwNC0uMjU1LS4wMDUtLjI1My0uMDA4LS4yNTEtLjAxLS4yNDktLjAxMi0uMjQ3LS4wMTUtLjI0NS0uMDE2LS4yNDMtLjAxOS0uMjQxLS4wMi0uMjM4LS4wMjMtLjIzNi0uMDI0LS4yMzQtLjAyNy0uMjMxLS4wMjgtLjIyOC0uMDMxLS4yMjYtLjAzMi0uMjIzLS4wMzQtLjIyLS4wMzYtLjIxNy0uMDM4LS4yMTQtLjA0LS4yMTEtLjA0MS0uMjA4LS4wNDMtLjIwNC0uMDQ1LS4yMDEtLjA0Ni0uMTk4LS4wNDgtLjE5NS0uMDUtLjE5LS4wNTEtLjE4Ny0uMDUzLS4xODQtLjA1NC0uMTc5LS4wNTYtLjE3Ni0uMDU3LS4xNzItLjA1OS0uMTY3LS4wNi0uMTY0LS4wNjEtLjE1OS0uMDYzLS4xNTUtLjA2NC0uMTUxLS4wNjYtLjA3NC0uMDMzLS4wNzItLjAzMy0uMDcyLS4wMzQtLjA3LS4wMzQtLjA2OS0uMDM1LS4wNjgtLjAzNS0uMDY3LS4wMzUtLjA2Ni0uMDM1LS4wNjQtLjAzNi0uMDYzLS4wMzYtLjA2Mi0uMDM2LS4wNjEtLjAzNi0uMDYtLjAzNy0uMDU4LS4wMzctLjA1Ny0uMDM3LS4wNTYtLjAzOC0uMDU1LS4wMzgtLjA1My0uMDM4LS4wNTItLjAzOC0uMDUxLS4wMzktLjA0OS0uMDM5LS4wNDktLjAzOS0uMDQ2LS4wMzktLjA0Ni0uMDQtLjA0NC0uMDQtLjA0My0uMDQtLjA0MS0uMDQtLjA0LS4wNDEtLjAzOS0uMDQxLS4wMzctLjA0MS0uMDM2LS4wNDEtLjAzNC0uMDQxLS4wMzMtLjA0Mi0uMDMyLS4wNDItLjAzLS4wNDItLjAyOS0uMDQyLS4wMjctLjA0Mi0uMDI2LS4wNDMtLjAyNC0uMDQzLS4wMjMtLjA0My0uMDIxLS4wNDMtLjAyLS4wNDMtLjAxOC0uMDQ0LS4wMTctLjA0My0uMDE1LS4wNDQtLjAxMy0uMDQ0LS4wMTItLjA0NC0uMDExLS4wNDUtLjAwOS0uMDQ0LS4wMDctLjA0NS0uMDA2LS4wNDUtLjAwNC0uMDQ1LS4wMDItLjA0NS0uMDAxLS4wNDV2LTE3bC4wMDEtLjA0NS4wMDItLjA0NS4wMDQtLjA0NS4wMDYtLjA0NS4wMDctLjA0NS4wMDktLjA0NC4wMTEtLjA0NS4wMTItLjA0NC4wMTMtLjA0NC4wMTUtLjA0NC4wMTctLjA0My4wMTgtLjA0NC4wMi0uMDQzLjAyMS0uMDQzLjAyMy0uMDQzLjAyNC0uMDQzLjAyNi0uMDQzLjAyNy0uMDQyLjAyOS0uMDQyLjAzLS4wNDIuMDMyLS4wNDIuMDMzLS4wNDIuMDM0LS4wNDEuMDM2LS4wNDEuMDM3LS4wNDEuMDM5LS4wNDEuMDQtLjA0MS4wNDEtLjA0LjA0My0uMDQuMDQ0LS4wNC4wNDYtLjA0LjA0Ni0uMDM5LjA0OS0uMDM5LjA0OS0uMDM5LjA1MS0uMDM5LjA1Mi0uMDM4LjA1My0uMDM4LjA1NS0uMDM4LjA1Ni0uMDM4LjA1Ny0uMDM3LjA1OC0uMDM3LjA2LS4wMzcuMDYxLS4wMzYuMDYyLS4wMzYuMDYzLS4wMzYuMDY0LS4wMzYuMDY2LS4wMzUuMDY3LS4wMzUuMDY4LS4wMzUuMDY5LS4wMzUuMDctLjAzNC4wNzItLjAzNC4wNzItLjAzMy4wNzQtLjAzMy4xNTEtLjA2Ni4xNTUtLjA2NC4xNTktLjA2My4xNjQtLjA2MS4xNjctLjA2LjE3Mi0uMDU5LjE3Ni0uMDU3LjE3OS0uMDU2LjE4NC0uMDU0LjE4Ny0uMDUzLjE5LS4wNTEuMTk1LS4wNS4xOTgtLjA0OC4yMDEtLjA0Ni4yMDQtLjA0NS4yMDgtLjA0My4yMTEtLjA0MS4yMTQtLjA0LjIxNy0uMDM4LjIyLS4wMzYuMjIzLS4wMzQuMjI2LS4wMzIuMjI4LS4wMzEuMjMxLS4wMjguMjM0LS4wMjcuMjM2LS4wMjQuMjM4LS4wMjMuMjQxLS4wMi4yNDMtLjAxOS4yNDUtLjAxNi4yNDctLjAxNS4yNDktLjAxMi4yNTEtLjAxLjI1My0uMDA4LjI1NS0uMDA1LjI1Ni0uMDA0LjI1OC0uMDAxLjI1OC4wMDF6bS05LjI1OCAyMC40OTl2LjAxbC4wMDEuMDIxLjAwMy4wMjEuMDA0LjAyMi4wMDUuMDIxLjAwNi4wMjIuMDA3LjAyMi4wMDkuMDIzLjAxLjAyMi4wMTEuMDIzLjAxMi4wMjMuMDEzLjAyMy4wMTUuMDIzLjAxNi4wMjQuMDE3LjAyMy4wMTguMDI0LjAxOS4wMjQuMDIxLjAyNC4wMjIuMDI1LjAyMy4wMjQuMDI0LjAyNS4wNTIuMDQ5LjA1Ni4wNS4wNjEuMDUxLjA2Ni4wNTEuMDcuMDUxLjA3NS4wNTEuMDc5LjA1Mi4wODQuMDUyLjA4OC4wNTIuMDkyLjA1Mi4wOTcuMDUyLjEwMi4wNTEuMTA1LjA1Mi4xMS4wNTIuMTE0LjA1MS4xMTkuMDUxLjEyMy4wNTEuMTI3LjA1LjEzMS4wNS4xMzUuMDUuMTM5LjA0OC4xNDQuMDQ5LjE0Ny4wNDcuMTUyLjA0Ny4xNTUuMDQ3LjE2LjA0NS4xNjMuMDQ1LjE2Ny4wNDMuMTcxLjA0My4xNzYuMDQxLjE3OC4wNDEuMTgzLjAzOS4xODcuMDM5LjE5LjAzNy4xOTQuMDM1LjE5Ny4wMzUuMjAyLjAzMy4yMDQuMDMxLjIwOS4wMy4yMTIuMDI5LjIxNi4wMjcuMjE5LjAyNS4yMjIuMDI0LjIyNi4wMjEuMjMuMDIuMjMzLjAxOC4yMzYuMDE2LjI0LjAxNS4yNDMuMDEyLjI0Ni4wMS4yNDkuMDA4LjI1My4wMDUuMjU2LjAwNC4yNTkuMDAxLjI2LS4wMDEuMjU3LS4wMDQuMjU0LS4wMDUuMjUtLjAwOC4yNDctLjAxMS4yNDQtLjAxMi4yNDEtLjAxNC4yMzctLjAxNi4yMzMtLjAxOC4yMzEtLjAyMS4yMjYtLjAyMS4yMjQtLjAyNC4yMi0uMDI2LjIxNi0uMDI3LjIxMi0uMDI4LjIxLS4wMzEuMjA1LS4wMzEuMjAyLS4wMzQuMTk4LS4wMzQuMTk0LS4wMzYuMTkxLS4wMzcuMTg3LS4wMzkuMTgzLS4wNC4xNzktLjA0LjE3NS0uMDQyLjE3Mi0uMDQzLjE2OC0uMDQ0LjE2My0uMDQ1LjE2LS4wNDYuMTU1LS4wNDYuMTUyLS4wNDcuMTQ4LS4wNDguMTQzLS4wNDkuMTM5LS4wNDkuMTM2LS4wNS4xMzEtLjA1LjEyNi0uMDUuMTIzLS4wNTEuMTE4LS4wNTIuMTE0LS4wNTEuMTEtLjA1Mi4xMDYtLjA1Mi4xMDEtLjA1Mi4wOTYtLjA1Mi4wOTItLjA1Mi4wODgtLjA1My4wODMtLjA1MS4wNzktLjA1Mi4wNzQtLjA1Mi4wNy0uMDUxLjA2NS0uMDUxLjA2LS4wNTEuMDU2LS4wNS4wNTEtLjA1LjAyMy0uMDI0LjAyMy0uMDI1LjAyMS0uMDI0LjAyLS4wMjQuMDE5LS4wMjQuMDE4LS4wMjQuMDE3LS4wMjQuMDE1LS4wMjMuMDE0LS4wMjQuMDEzLS4wMjMuMDEyLS4wMjMuMDEtLjAyMy4wMS0uMDIyLjAwOC0uMDIyLjAwNi0uMDIyLjAwNi0uMDIyLjAwNC0uMDIyLjAwNC0uMDIxLjAwMS0uMDIxLjAwMS0uMDIxdi00LjEyN2wtLjA3Ny4wNTUtLjA4LjA1My0uMDgzLjA1NC0uMDg1LjA1My0uMDg3LjA1Mi0uMDkuMDUyLS4wOTMuMDUxLS4wOTUuMDUtLjA5Ny4wNS0uMS4wNDktLjEwMi4wNDktLjEwNS4wNDgtLjEwNi4wNDctLjEwOS4wNDctLjExMS4wNDYtLjExNC4wNDUtLjExNS4wNDUtLjExOC4wNDQtLjEyLjA0My0uMTIyLjA0Mi0uMTI0LjA0Mi0uMTI2LjA0MS0uMTI4LjA0LS4xMy4wNC0uMTMyLjAzOC0uMTM0LjAzOC0uMTM1LjAzNy0uMTM4LjAzNy0uMTM5LjAzNS0uMTQyLjAzNS0uMTQzLjAzNC0uMTQ0LjAzMy0uMTQ3LjAzMi0uMTQ4LjAzMS0uMTUuMDMtLjE1MS4wMy0uMTUzLjAyOS0uMTU0LjAyNy0uMTU2LjAyNy0uMTU4LjAyNi0uMTU5LjAyNS0uMTYxLjAyNC0uMTYyLjAyMy0uMTYzLjAyMi0uMTY1LjAyMS0uMTY2LjAyLS4xNjcuMDE5LS4xNjkuMDE4LS4xNjkuMDE3LS4xNzEuMDE2LS4xNzMuMDE1LS4xNzMuMDE0LS4xNzUuMDEzLS4xNzUuMDEyLS4xNzcuMDExLS4xNzguMDEtLjE3OS4wMDgtLjE3OS4wMDgtLjE4MS4wMDYtLjE4Mi4wMDUtLjE4Mi4wMDQtLjE4NC4wMDMtLjE4NC4wMDJoLS4zN2wtLjE4NC0uMDAyLS4xODQtLjAwMy0uMTgyLS4wMDQtLjE4Mi0uMDA1LS4xODEtLjAwNi0uMTc5LS4wMDgtLjE3OS0uMDA4LS4xNzgtLjAxLS4xNzYtLjAxMS0uMTc2LS4wMTItLjE3NS0uMDEzLS4xNzMtLjAxNC0uMTcyLS4wMTUtLjE3MS0uMDE2LS4xNy0uMDE3LS4xNjktLjAxOC0uMTY3LS4wMTktLjE2Ni0uMDItLjE2NS0uMDIxLS4xNjMtLjAyMi0uMTYyLS4wMjMtLjE2MS0uMDI0LS4xNTktLjAyNS0uMTU3LS4wMjYtLjE1Ni0uMDI3LS4xNTUtLjAyNy0uMTUzLS4wMjktLjE1MS0uMDMtLjE1LS4wMy0uMTQ4LS4wMzEtLjE0Ni0uMDMyLS4xNDUtLjAzMy0uMTQzLS4wMzQtLjE0MS0uMDM1LS4xNC0uMDM1LS4xMzctLjAzNy0uMTM2LS4wMzctLjEzNC0uMDM4LS4xMzItLjAzOC0uMTMtLjA0LS4xMjgtLjA0LS4xMjYtLjA0MS0uMTI0LS4wNDItLjEyMi0uMDQyLS4xMi0uMDQ0LS4xMTctLjA0My0uMTE2LS4wNDUtLjExMy0uMDQ1LS4xMTItLjA0Ni0uMTA5LS4wNDctLjEwNi0uMDQ3LS4xMDUtLjA0OC0uMTAyLS4wNDktLjEtLjA0OS0uMDk3LS4wNS0uMDk1LS4wNS0uMDkzLS4wNTItLjA5LS4wNTEtLjA4Ny0uMDUyLS4wODUtLjA1My0uMDgzLS4wNTQtLjA4LS4wNTQtLjA3Ny0uMDU0djQuMTI3em0wLTUuNjU0di4wMTFsLjAwMS4wMjEuMDAzLjAyMS4wMDQuMDIxLjAwNS4wMjIuMDA2LjAyMi4wMDcuMDIyLjAwOS4wMjIuMDEuMDIyLjAxMS4wMjMuMDEyLjAyMy4wMTMuMDIzLjAxNS4wMjQuMDE2LjAyMy4wMTcuMDI0LjAxOC4wMjQuMDE5LjAyNC4wMjEuMDI0LjAyMi4wMjQuMDIzLjAyNS4wMjQuMDI0LjA1Mi4wNS4wNTYuMDUuMDYxLjA1LjA2Ni4wNTEuMDcuMDUxLjA3NS4wNTIuMDc5LjA1MS4wODQuMDUyLjA4OC4wNTIuMDkyLjA1Mi4wOTcuMDUyLjEwMi4wNTIuMTA1LjA1Mi4xMS4wNTEuMTE0LjA1MS4xMTkuMDUyLjEyMy4wNS4xMjcuMDUxLjEzMS4wNS4xMzUuMDQ5LjEzOS4wNDkuMTQ0LjA0OC4xNDcuMDQ4LjE1Mi4wNDcuMTU1LjA0Ni4xNi4wNDUuMTYzLjA0NS4xNjcuMDQ0LjE3MS4wNDIuMTc2LjA0Mi4xNzguMDQuMTgzLjA0LjE4Ny4wMzguMTkuMDM3LjE5NC4wMzYuMTk3LjAzNC4yMDIuMDMzLjIwNC4wMzIuMjA5LjAzLjIxMi4wMjguMjE2LjAyNy4yMTkuMDI1LjIyMi4wMjQuMjI2LjAyMi4yMy4wMi4yMzMuMDE4LjIzNi4wMTYuMjQuMDE0LjI0My4wMTIuMjQ2LjAxLjI0OS4wMDguMjUzLjAwNi4yNTYuMDAzLjI1OS4wMDEuMjYtLjAwMS4yNTctLjAwMy4yNTQtLjAwNi4yNS0uMDA4LjI0Ny0uMDEuMjQ0LS4wMTIuMjQxLS4wMTUuMjM3LS4wMTYuMjMzLS4wMTguMjMxLS4wMi4yMjYtLjAyMi4yMjQtLjAyNC4yMi0uMDI1LjIxNi0uMDI3LjIxMi0uMDI5LjIxLS4wMy4yMDUtLjAzMi4yMDItLjAzMy4xOTgtLjAzNS4xOTQtLjAzNi4xOTEtLjAzNy4xODctLjAzOS4xODMtLjAzOS4xNzktLjA0MS4xNzUtLjA0Mi4xNzItLjA0My4xNjgtLjA0NC4xNjMtLjA0NS4xNi0uMDQ1LjE1NS0uMDQ3LjE1Mi0uMDQ3LjE0OC0uMDQ4LjE0My0uMDQ4LjEzOS0uMDUuMTM2LS4wNDkuMTMxLS4wNS4xMjYtLjA1MS4xMjMtLjA1MS4xMTgtLjA1MS4xMTQtLjA1Mi4xMS0uMDUyLjEwNi0uMDUyLjEwMS0uMDUyLjA5Ni0uMDUyLjA5Mi0uMDUyLjA4OC0uMDUyLjA4My0uMDUyLjA3OS0uMDUyLjA3NC0uMDUxLjA3LS4wNTIuMDY1LS4wNTEuMDYtLjA1LjA1Ni0uMDUxLjA1MS0uMDQ5LjAyMy0uMDI1LjAyMy0uMDI0LjAyMS0uMDI1LjAyLS4wMjQuMDE5LS4wMjQuMDE4LS4wMjQuMDE3LS4wMjQuMDE1LS4wMjMuMDE0LS4wMjMuMDEzLS4wMjQuMDEyLS4wMjIuMDEtLjAyMy4wMS0uMDIzLjAwOC0uMDIyLjAwNi0uMDIyLjAwNi0uMDIyLjAwNC0uMDIxLjAwNC0uMDIyLjAwMS0uMDIxLjAwMS0uMDIxdi00LjEzOWwtLjA3Ny4wNTQtLjA4LjA1NC0uMDgzLjA1NC0uMDg1LjA1Mi0uMDg3LjA1My0uMDkuMDUxLS4wOTMuMDUxLS4wOTUuMDUxLS4wOTcuMDUtLjEuMDQ5LS4xMDIuMDQ5LS4xMDUuMDQ4LS4xMDYuMDQ3LS4xMDkuMDQ3LS4xMTEuMDQ2LS4xMTQuMDQ1LS4xMTUuMDQ0LS4xMTguMDQ0LS4xMi4wNDQtLjEyMi4wNDItLjEyNC4wNDItLjEyNi4wNDEtLjEyOC4wNC0uMTMuMDM5LS4xMzIuMDM5LS4xMzQuMDM4LS4xMzUuMDM3LS4xMzguMDM2LS4xMzkuMDM2LS4xNDIuMDM1LS4xNDMuMDMzLS4xNDQuMDMzLS4xNDcuMDMzLS4xNDguMDMxLS4xNS4wMy0uMTUxLjAzLS4xNTMuMDI4LS4xNTQuMDI4LS4xNTYuMDI3LS4xNTguMDI2LS4xNTkuMDI1LS4xNjEuMDI0LS4xNjIuMDIzLS4xNjMuMDIyLS4xNjUuMDIxLS4xNjYuMDItLjE2Ny4wMTktLjE2OS4wMTgtLjE2OS4wMTctLjE3MS4wMTYtLjE3My4wMTUtLjE3My4wMTQtLjE3NS4wMTMtLjE3NS4wMTItLjE3Ny4wMTEtLjE3OC4wMDktLjE3OS4wMDktLjE3OS4wMDctLjE4MS4wMDctLjE4Mi4wMDUtLjE4Mi4wMDQtLjE4NC4wMDMtLjE4NC4wMDJoLS4zN2wtLjE4NC0uMDAyLS4xODQtLjAwMy0uMTgyLS4wMDQtLjE4Mi0uMDA1LS4xODEtLjAwNy0uMTc5LS4wMDctLjE3OS0uMDA5LS4xNzgtLjAwOS0uMTc2LS4wMTEtLjE3Ni0uMDEyLS4xNzUtLjAxMy0uMTczLS4wMTQtLjE3Mi0uMDE1LS4xNzEtLjAxNi0uMTctLjAxNy0uMTY5LS4wMTgtLjE2Ny0uMDE5LS4xNjYtLjAyLS4xNjUtLjAyMS0uMTYzLS4wMjItLjE2Mi0uMDIzLS4xNjEtLjAyNC0uMTU5LS4wMjUtLjE1Ny0uMDI2LS4xNTYtLjAyNy0uMTU1LS4wMjgtLjE1My0uMDI4LS4xNTEtLjAzLS4xNS0uMDMtLjE0OC0uMDMxLS4xNDYtLjAzMy0uMTQ1LS4wMzMtLjE0My0uMDMzLS4xNDEtLjAzNS0uMTQtLjAzNi0uMTM3LS4wMzYtLjEzNi0uMDM3LS4xMzQtLjAzOC0uMTMyLS4wMzktLjEzLS4wMzktLjEyOC0uMDQtLjEyNi0uMDQxLS4xMjQtLjA0Mi0uMTIyLS4wNDMtLjEyLS4wNDMtLjExNy0uMDQ0LS4xMTYtLjA0NC0uMTEzLS4wNDYtLjExMi0uMDQ2LS4xMDktLjA0Ni0uMTA2LS4wNDctLjEwNS0uMDQ4LS4xMDItLjA0OS0uMS0uMDQ5LS4wOTctLjA1LS4wOTUtLjA1MS0uMDkzLS4wNTEtLjA5LS4wNTEtLjA4Ny0uMDUzLS4wODUtLjA1Mi0uMDgzLS4wNTQtLjA4LS4wNTQtLjA3Ny0uMDU0djQuMTM5em0wLTUuNjY2di4wMTFsLjAwMS4wMi4wMDMuMDIyLjAwNC4wMjEuMDA1LjAyMi4wMDYuMDIxLjAwNy4wMjIuMDA5LjAyMy4wMS4wMjIuMDExLjAyMy4wMTIuMDIzLjAxMy4wMjMuMDE1LjAyMy4wMTYuMDI0LjAxNy4wMjQuMDE4LjAyMy4wMTkuMDI0LjAyMS4wMjUuMDIyLjAyNC4wMjMuMDI0LjAyNC4wMjUuMDUyLjA1LjA1Ni4wNS4wNjEuMDUuMDY2LjA1MS4wNy4wNTEuMDc1LjA1Mi4wNzkuMDUxLjA4NC4wNTIuMDg4LjA1Mi4wOTIuMDUyLjA5Ny4wNTIuMTAyLjA1Mi4xMDUuMDUxLjExLjA1Mi4xMTQuMDUxLjExOS4wNTEuMTIzLjA1MS4xMjcuMDUuMTMxLjA1LjEzNS4wNS4xMzkuMDQ5LjE0NC4wNDguMTQ3LjA0OC4xNTIuMDQ3LjE1NS4wNDYuMTYuMDQ1LjE2My4wNDUuMTY3LjA0My4xNzEuMDQzLjE3Ni4wNDIuMTc4LjA0LjE4My4wNC4xODcuMDM4LjE5LjAzNy4xOTQuMDM2LjE5Ny4wMzQuMjAyLjAzMy4yMDQuMDMyLjIwOS4wMy4yMTIuMDI4LjIxNi4wMjcuMjE5LjAyNS4yMjIuMDI0LjIyNi4wMjEuMjMuMDIuMjMzLjAxOC4yMzYuMDE3LjI0LjAxNC4yNDMuMDEyLjI0Ni4wMS4yNDkuMDA4LjI1My4wMDYuMjU2LjAwMy4yNTkuMDAxLjI2LS4wMDEuMjU3LS4wMDMuMjU0LS4wMDYuMjUtLjAwOC4yNDctLjAxLjI0NC0uMDEzLjI0MS0uMDE0LjIzNy0uMDE2LjIzMy0uMDE4LjIzMS0uMDIuMjI2LS4wMjIuMjI0LS4wMjQuMjItLjAyNS4yMTYtLjAyNy4yMTItLjAyOS4yMS0uMDMuMjA1LS4wMzIuMjAyLS4wMzMuMTk4LS4wMzUuMTk0LS4wMzYuMTkxLS4wMzcuMTg3LS4wMzkuMTgzLS4wMzkuMTc5LS4wNDEuMTc1LS4wNDIuMTcyLS4wNDMuMTY4LS4wNDQuMTYzLS4wNDUuMTYtLjA0NS4xNTUtLjA0Ny4xNTItLjA0Ny4xNDgtLjA0OC4xNDMtLjA0OS4xMzktLjA0OS4xMzYtLjA0OS4xMzEtLjA1MS4xMjYtLjA1LjEyMy0uMDUxLjExOC0uMDUyLjExNC0uMDUxLjExLS4wNTIuMTA2LS4wNTIuMTAxLS4wNTIuMDk2LS4wNTIuMDkyLS4wNTIuMDg4LS4wNTIuMDgzLS4wNTIuMDc5LS4wNTIuMDc0LS4wNTIuMDctLjA1MS4wNjUtLjA1MS4wNi0uMDUxLjA1Ni0uMDUuMDUxLS4wNDkuMDIzLS4wMjUuMDIzLS4wMjUuMDIxLS4wMjQuMDItLjAyNC4wMTktLjAyNC4wMTgtLjAyNC4wMTctLjAyNC4wMTUtLjAyMy4wMTQtLjAyNC4wMTMtLjAyMy4wMTItLjAyMy4wMS0uMDIyLjAxLS4wMjMuMDA4LS4wMjIuMDA2LS4wMjIuMDA2LS4wMjIuMDA0LS4wMjIuMDA0LS4wMjEuMDAxLS4wMjEuMDAxLS4wMjF2LTQuMTUzbC0uMDc3LjA1NC0uMDguMDU0LS4wODMuMDUzLS4wODUuMDUzLS4wODcuMDUzLS4wOS4wNTEtLjA5My4wNTEtLjA5NS4wNTEtLjA5Ny4wNS0uMS4wNDktLjEwMi4wNDgtLjEwNS4wNDgtLjEwNi4wNDgtLjEwOS4wNDYtLjExMS4wNDYtLjExNC4wNDYtLjExNS4wNDQtLjExOC4wNDQtLjEyLjA0My0uMTIyLjA0My0uMTI0LjA0Mi0uMTI2LjA0MS0uMTI4LjA0LS4xMy4wMzktLjEzMi4wMzktLjEzNC4wMzgtLjEzNS4wMzctLjEzOC4wMzYtLjEzOS4wMzYtLjE0Mi4wMzQtLjE0My4wMzQtLjE0NC4wMzMtLjE0Ny4wMzItLjE0OC4wMzItLjE1LjAzLS4xNTEuMDMtLjE1My4wMjgtLjE1NC4wMjgtLjE1Ni4wMjctLjE1OC4wMjYtLjE1OS4wMjQtLjE2MS4wMjQtLjE2Mi4wMjMtLjE2My4wMjMtLjE2NS4wMjEtLjE2Ni4wMi0uMTY3LjAxOS0uMTY5LjAxOC0uMTY5LjAxNy0uMTcxLjAxNi0uMTczLjAxNS0uMTczLjAxNC0uMTc1LjAxMy0uMTc1LjAxMi0uMTc3LjAxLS4xNzguMDEtLjE3OS4wMDktLjE3OS4wMDctLjE4MS4wMDYtLjE4Mi4wMDYtLjE4Mi4wMDQtLjE4NC4wMDMtLjE4NC4wMDEtLjE4NS4wMDEtLjE4NS0uMDAxLS4xODQtLjAwMS0uMTg0LS4wMDMtLjE4Mi0uMDA0LS4xODItLjAwNi0uMTgxLS4wMDYtLjE3OS0uMDA3LS4xNzktLjAwOS0uMTc4LS4wMS0uMTc2LS4wMS0uMTc2LS4wMTItLjE3NS0uMDEzLS4xNzMtLjAxNC0uMTcyLS4wMTUtLjE3MS0uMDE2LS4xNy0uMDE3LS4xNjktLjAxOC0uMTY3LS4wMTktLjE2Ni0uMDItLjE2NS0uMDIxLS4xNjMtLjAyMy0uMTYyLS4wMjMtLjE2MS0uMDI0LS4xNTktLjAyNC0uMTU3LS4wMjYtLjE1Ni0uMDI3LS4xNTUtLjAyOC0uMTUzLS4wMjgtLjE1MS0uMDMtLjE1LS4wMy0uMTQ4LS4wMzItLjE0Ni0uMDMyLS4xNDUtLjAzMy0uMTQzLS4wMzQtLjE0MS0uMDM0LS4xNC0uMDM2LS4xMzctLjAzNi0uMTM2LS4wMzctLjEzNC0uMDM4LS4xMzItLjAzOS0uMTMtLjAzOS0uMTI4LS4wNDEtLjEyNi0uMDQxLS4xMjQtLjA0MS0uMTIyLS4wNDMtLjEyLS4wNDMtLjExNy0uMDQ0LS4xMTYtLjA0NC0uMTEzLS4wNDYtLjExMi0uMDQ2LS4xMDktLjA0Ni0uMTA2LS4wNDgtLjEwNS0uMDQ4LS4xMDItLjA0OC0uMS0uMDUtLjA5Ny0uMDQ5LS4wOTUtLjA1MS0uMDkzLS4wNTEtLjA5LS4wNTItLjA4Ny0uMDUyLS4wODUtLjA1My0uMDgzLS4wNTMtLjA4LS4wNTQtLjA3Ny0uMDU0djQuMTUzem04Ljc0LTguMTc5bC0uMjU3LjAwNC0uMjU0LjAwNS0uMjUuMDA4LS4yNDcuMDExLS4yNDQuMDEyLS4yNDEuMDE0LS4yMzcuMDE2LS4yMzMuMDE4LS4yMzEuMDIxLS4yMjYuMDIyLS4yMjQuMDIzLS4yMi4wMjYtLjIxNi4wMjctLjIxMi4wMjgtLjIxLjAzMS0uMjA1LjAzMi0uMjAyLjAzMy0uMTk4LjAzNC0uMTk0LjAzNi0uMTkxLjAzOC0uMTg3LjAzOC0uMTgzLjA0LS4xNzkuMDQxLS4xNzUuMDQyLS4xNzIuMDQzLS4xNjguMDQzLS4xNjMuMDQ1LS4xNi4wNDYtLjE1NS4wNDYtLjE1Mi4wNDgtLjE0OC4wNDgtLjE0My4wNDgtLjEzOS4wNDktLjEzNi4wNS0uMTMxLjA1LS4xMjYuMDUxLS4xMjMuMDUxLS4xMTguMDUxLS4xMTQuMDUyLS4xMS4wNTItLjEwNi4wNTItLjEwMS4wNTItLjA5Ni4wNTItLjA5Mi4wNTItLjA4OC4wNTItLjA4My4wNTItLjA3OS4wNTItLjA3NC4wNTEtLjA3LjA1Mi0uMDY1LjA1MS0uMDYuMDUtLjA1Ni4wNS0uMDUxLjA1LS4wMjMuMDI1LS4wMjMuMDI0LS4wMjEuMDI0LS4wMi4wMjUtLjAxOS4wMjQtLjAxOC4wMjQtLjAxNy4wMjMtLjAxNS4wMjQtLjAxNC4wMjMtLjAxMy4wMjMtLjAxMi4wMjMtLjAxLjAyMy0uMDEuMDIyLS4wMDguMDIyLS4wMDYuMDIzLS4wMDYuMDIxLS4wMDQuMDIyLS4wMDQuMDIxLS4wMDEuMDIxLS4wMDEuMDIxLjAwMS4wMjEuMDAxLjAyMS4wMDQuMDIxLjAwNC4wMjIuMDA2LjAyMS4wMDYuMDIzLjAwOC4wMjIuMDEuMDIyLjAxLjAyMy4wMTIuMDIzLjAxMy4wMjMuMDE0LjAyMy4wMTUuMDI0LjAxNy4wMjMuMDE4LjAyNC4wMTkuMDI0LjAyLjAyNS4wMjEuMDI0LjAyMy4wMjQuMDIzLjAyNS4wNTEuMDUuMDU2LjA1LjA2LjA1LjA2NS4wNTEuMDcuMDUyLjA3NC4wNTEuMDc5LjA1Mi4wODMuMDUyLjA4OC4wNTIuMDkyLjA1Mi4wOTYuMDUyLjEwMS4wNTIuMTA2LjA1Mi4xMS4wNTIuMTE0LjA1Mi4xMTguMDUxLjEyMy4wNTEuMTI2LjA1MS4xMzEuMDUuMTM2LjA1LjEzOS4wNDkuMTQzLjA0OC4xNDguMDQ4LjE1Mi4wNDguMTU1LjA0Ni4xNi4wNDYuMTYzLjA0NS4xNjguMDQzLjE3Mi4wNDMuMTc1LjA0Mi4xNzkuMDQxLjE4My4wNC4xODcuMDM4LjE5MS4wMzguMTk0LjAzNi4xOTguMDM0LjIwMi4wMzMuMjA1LjAzMi4yMS4wMzEuMjEyLjAyOC4yMTYuMDI3LjIyLjAyNi4yMjQuMDIzLjIyNi4wMjIuMjMxLjAyMS4yMzMuMDE4LjIzNy4wMTYuMjQxLjAxNC4yNDQuMDEyLjI0Ny4wMTEuMjUuMDA4LjI1NC4wMDUuMjU3LjAwNC4yNi4wMDEuMjYtLjAwMS4yNTctLjAwNC4yNTQtLjAwNS4yNS0uMDA4LjI0Ny0uMDExLjI0NC0uMDEyLjI0MS0uMDE0LjIzNy0uMDE2LjIzMy0uMDE4LjIzMS0uMDIxLjIyNi0uMDIyLjIyNC0uMDIzLjIyLS4wMjYuMjE2LS4wMjcuMjEyLS4wMjguMjEtLjAzMS4yMDUtLjAzMi4yMDItLjAzMy4xOTgtLjAzNC4xOTQtLjAzNi4xOTEtLjAzOC4xODctLjAzOC4xODMtLjA0LjE3OS0uMDQxLjE3NS0uMDQyLjE3Mi0uMDQzLjE2OC0uMDQzLjE2My0uMDQ1LjE2LS4wNDYuMTU1LS4wNDYuMTUyLS4wNDguMTQ4LS4wNDguMTQzLS4wNDguMTM5LS4wNDkuMTM2LS4wNS4xMzEtLjA1LjEyNi0uMDUxLjEyMy0uMDUxLjExOC0uMDUxLjExNC0uMDUyLjExLS4wNTIuMTA2LS4wNTIuMTAxLS4wNTIuMDk2LS4wNTIuMDkyLS4wNTIuMDg4LS4wNTIuMDgzLS4wNTIuMDc5LS4wNTIuMDc0LS4wNTEuMDctLjA1Mi4wNjUtLjA1MS4wNi0uMDUuMDU2LS4wNS4wNTEtLjA1LjAyMy0uMDI1LjAyMy0uMDI0LjAyMS0uMDI0LjAyLS4wMjUuMDE5LS4wMjQuMDE4LS4wMjQuMDE3LS4wMjMuMDE1LS4wMjQuMDE0LS4wMjMuMDEzLS4wMjMuMDEyLS4wMjMuMDEtLjAyMy4wMS0uMDIyLjAwOC0uMDIyLjAwNi0uMDIzLjAwNi0uMDIxLjAwNC0uMDIyLjAwNC0uMDIxLjAwMS0uMDIxLjAwMS0uMDIxLS4wMDEtLjAyMS0uMDAxLS4wMjEtLjAwNC0uMDIxLS4wMDQtLjAyMi0uMDA2LS4wMjEtLjAwNi0uMDIzLS4wMDgtLjAyMi0uMDEtLjAyMi0uMDEtLjAyMy0uMDEyLS4wMjMtLjAxMy0uMDIzLS4wMTQtLjAyMy0uMDE1LS4wMjQtLjAxNy0uMDIzLS4wMTgtLjAyNC0uMDE5LS4wMjQtLjAyLS4wMjUtLjAyMS0uMDI0LS4wMjMtLjAyNC0uMDIzLS4wMjUtLjA1MS0uMDUtLjA1Ni0uMDUtLjA2LS4wNS0uMDY1LS4wNTEtLjA3LS4wNTItLjA3NC0uMDUxLS4wNzktLjA1Mi0uMDgzLS4wNTItLjA4OC0uMDUyLS4wOTItLjA1Mi0uMDk2LS4wNTItLjEwMS0uMDUyLS4xMDYtLjA1Mi0uMTEtLjA1Mi0uMTE0LS4wNTItLjExOC0uMDUxLS4xMjMtLjA1MS0uMTI2LS4wNTEtLjEzMS0uMDUtLjEzNi0uMDUtLjEzOS0uMDQ5LS4xNDMtLjA0OC0uMTQ4LS4wNDgtLjE1Mi0uMDQ4LS4xNTUtLjA0Ni0uMTYtLjA0Ni0uMTYzLS4wNDUtLjE2OC0uMDQzLS4xNzItLjA0My0uMTc1LS4wNDItLjE3OS0uMDQxLS4xODMtLjA0LS4xODctLjAzOC0uMTkxLS4wMzgtLjE5NC0uMDM2LS4xOTgtLjAzNC0uMjAyLS4wMzMtLjIwNS0uMDMyLS4yMS0uMDMxLS4yMTItLjAyOC0uMjE2LS4wMjctLjIyLS4wMjYtLjIyNC0uMDIzLS4yMjYtLjAyMi0uMjMxLS4wMjEtLjIzMy0uMDE4LS4yMzctLjAxNi0uMjQxLS4wMTQtLjI0NC0uMDEyLS4yNDctLjAxMS0uMjUtLjAwOC0uMjU0LS4wMDUtLjI1Ny0uMDA0LS4yNi0uMDAxLS4yNi4wMDF6Ij48L3BhdGg+PC9zeW1ib2w+PC9kZWZzPjxkZWZzPjxzeW1ib2wgaWQ9ImNsb2NrIiB3aWR0aD0iMjQiIGhlaWdodD0iMjQiPjxwYXRoIHRyYW5zZm9ybT0ic2NhbGUoLjUpIiBkPSJNMTIgMmM1LjUxNCAwIDEwIDQuNDg2IDEwIDEwcy00LjQ4NiAxMC0xMCAxMC0xMC00LjQ4Ni0xMC0xMCA0LjQ4Ni0xMCAxMC0xMHptMC0yYy02LjYyNyAwLTEyIDUuMzczLTEyIDEyczUuMzczIDEyIDEyIDEyIDEyLTUuMzczIDEyLTEyLTUuMzczLTEyLTEyLTEyem01Ljg0OCAxMi40NTljLjIwMi4wMzguMjAyLjMzMy4wMDEuMzcyLTEuOTA3LjM2MS02LjA0NSAxLjExMS02LjU0NyAxLjExMS0uNzE5IDAtMS4zMDEtLjU4Mi0xLjMwMS0xLjMwMSAwLS41MTIuNzctNS40NDcgMS4xMjUtNy40NDUuMDM0LS4xOTIuMzEyLS4xODEuMzQzLjAxNGwuOTg1IDYuMjM4IDUuMzk0IDEuMDExeiI+PC9wYXRoPjwvc3ltYm9sPjwvZGVmcz48ZGVmcz48bWFya2VyIGlkPSJhcnJvd2hlYWQiIHJlZlg9IjcuOSIgcmVmWT0iNSIgbWFya2VyVW5pdHM9InVzZXJTcGFjZU9uVXNlIiBtYXJrZXJXaWR0aD0iMTIiIG1hcmtlckhlaWdodD0iMTIiIG9yaWVudD0iYXV0by1zdGFydC1yZXZlcnNlIj48cGF0aCBkPSJNIC0xIDAgTCAxMCA1IEwgMCAxMCB6Ij48L3BhdGg+PC9tYXJrZXI+PC9kZWZzPjxkZWZzPjxtYXJrZXIgaWQ9ImNyb3NzaGVhZCIgbWFya2VyV2lkdGg9IjE1IiBtYXJrZXJIZWlnaHQ9IjgiIG9yaWVudD0iYXV0byIgcmVmWD0iNCIgcmVmWT0iNC41Ij48cGF0aCBmaWxsPSJub25lIiBzdHJva2U9IiMwMDAwMDAiIHN0cm9rZS13aWR0aD0iMXB0IiBkPSJNIDEsMiBMIDYsNyBNIDYsMiBMIDEsNyIgc3R5bGU9InN0cm9rZS1kYXNoYXJyYXk6IDAsIDA7Ij48L3BhdGg+PC9tYXJrZXI+PC9kZWZzPjxkZWZzPjxtYXJrZXIgaWQ9ImZpbGxlZC1oZWFkIiByZWZYPSIxNS41IiByZWZZPSI3IiBtYXJrZXJXaWR0aD0iMjAiIG1hcmtlckhlaWdodD0iMjgiIG9yaWVudD0iYXV0byI+PHBhdGggZD0iTSAxOCw3IEw5LDEzIEwxNCw3IEw5LDEgWiI+PC9wYXRoPjwvbWFya2VyPjwvZGVmcz48ZGVmcz48bWFya2VyIGlkPSJzZXF1ZW5jZW51bWJlciIgcmVmWD0iMTUiIHJlZlk9IjE1IiBtYXJrZXJXaWR0aD0iNjAiIG1hcmtlckhlaWdodD0iNDAiIG9yaWVudD0iYXV0byI+PGNpcmNsZSBjeD0iMTUiIGN5PSIxNSIgcj0iNiI+PC9jaXJjbGU+PC9tYXJrZXI+PC9kZWZzPjx0ZXh0IHg9IjI4NyIgeT0iODAiIHRleHQtYW5jaG9yPSJtaWRkbGUiIGRvbWluYW50LWJhc2VsaW5lPSJtaWRkbGUiIGFsaWdubWVudC1iYXNlbGluZT0ibWlkZGxlIiBjbGFzcz0ibWVzc2FnZVRleHQiIGR5PSIxZW0iIHN0eWxlPSJmb250LXNpemU6IDE2cHg7IGZvbnQtd2VpZ2h0OiA0MDA7Ij5Mb2dpbiAoQ3VzdG9tZXIgSUQsIFBhc3N3b3JkKTwvdGV4dD48bGluZSB4MT0iODUuNSIgeTE9IjExMyIgeDI9IjQ4OC41IiB5Mj0iMTEzIiBjbGFzcz0ibWVzc2FnZUxpbmUwIiBzdHJva2Utd2lkdGg9IjIiIHN0cm9rZT0ibm9uZSIgbWFya2VyLWVuZD0idXJsKCNhcnJvd2hlYWQpIiBzdHlsZT0iZmlsbDogbm9uZTsiPjwvbGluZT48dGV4dCB4PSIyOTAiIHk9IjEyOCIgdGV4dC1hbmNob3I9Im1pZGRsZSIgZG9taW5hbnQtYmFzZWxpbmU9Im1pZGRsZSIgYWxpZ25tZW50LWJhc2VsaW5lPSJtaWRkbGUiIGNsYXNzPSJtZXNzYWdlVGV4dCIgZHk9IjFlbSIgc3R5bGU9ImZvbnQtc2l6ZTogMTZweDsgZm9udC13ZWlnaHQ6IDQwMDsiPuKchSBMb2dpbiBTdWNjZXNzZnVsPC90ZXh0PjxsaW5lIHgxPSI0OTEuNSIgeTE9IjE2MSIgeDI9Ijg4LjUiIHkyPSIxNjEiIGNsYXNzPSJtZXNzYWdlTGluZTEiIHN0cm9rZS13aWR0aD0iMiIgc3Ryb2tlPSJub25lIiBtYXJrZXItZW5kPSJ1cmwoI2Fycm93aGVhZCkiIHN0eWxlPSJzdHJva2UtZGFzaGFycmF5OiAzLCAzOyBmaWxsOiBub25lOyI+PC9saW5lPjx0ZXh0IHg9IjI4NyIgeT0iMTc2IiB0ZXh0LWFuY2hvcj0ibWlkZGxlIiBkb21pbmFudC1iYXNlbGluZT0ibWlkZGxlIiBhbGlnbm1lbnQtYmFzZWxpbmU9Im1pZGRsZSIgY2xhc3M9Im1lc3NhZ2VUZXh0IiBkeT0iMWVtIiBzdHlsZT0iZm9udC1zaXplOiAxNnB4OyBmb250LXdlaWdodDogNDAwOyI+U2VsZWN0ICJUcmFuc2ZlciBGdW5kcyI8L3RleHQ+PGxpbmUgeDE9Ijg1LjUiIHkxPSIyMDkiIHgyPSI0ODguNSIgeTI9IjIwOSIgY2xhc3M9Im1lc3NhZ2VMaW5lMCIgc3Ryb2tlLXdpZHRoPSIyIiBzdHJva2U9Im5vbmUiIG1hcmtlci1lbmQ9InVybCgjYXJyb3doZWFkKSIgc3R5bGU9ImZpbGw6IG5vbmU7Ij48L2xpbmU+PHRleHQgeD0iNjc1IiB5PSIyMjQiIHRleHQtYW5jaG9yPSJtaWRkbGUiIGRvbWluYW50LWJhc2VsaW5lPSJtaWRkbGUiIGFsaWdubWVudC1iYXNlbGluZT0ibWlkZGxlIiBjbGFzcz0ibWVzc2FnZVRleHQiIGR5PSIxZW0iIHN0eWxlPSJmb250LXNpemU6IDE2cHg7IGZvbnQtd2VpZ2h0OiA0MDA7Ij5oYW5kbGVDdXN0b21lck1lbnUodXNlcm5hbWUpPC90ZXh0PjxsaW5lIHgxPSI0OTMuNSIgeTE9IjI1NyIgeDI9Ijg1NS41IiB5Mj0iMjU3IiBjbGFzcz0ibWVzc2FnZUxpbmUwIiBzdHJva2Utd2lkdGg9IjIiIHN0cm9rZT0ibm9uZSIgbWFya2VyLWVuZD0idXJsKCNhcnJvd2hlYWQpIiBzdHlsZT0iZmlsbDogbm9uZTsiPjwvbGluZT48dGV4dCB4PSIxMDQxIiB5PSIyNzIiIHRleHQtYW5jaG9yPSJtaWRkbGUiIGRvbWluYW50LWJhc2VsaW5lPSJtaWRkbGUiIGFsaWdubWVudC1iYXNlbGluZT0ibWlkZGxlIiBjbGFzcz0ibWVzc2FnZVRleHQiIGR5PSIxZW0iIHN0eWxlPSJmb250LXNpemU6IDE2cHg7IGZvbnQtd2VpZ2h0OiA0MDA7Ij5nZXRCYWxhbmNlKGZyb21Vc2VyKTwvdGV4dD48bGluZSB4MT0iODYwLjUiIHkxPSIzMDUiIHgyPSIxMjIwLjUiIHkyPSIzMDUiIGNsYXNzPSJtZXNzYWdlTGluZTAiIHN0cm9rZS13aWR0aD0iMiIgc3Ryb2tlPSJub25lIiBtYXJrZXItZW5kPSJ1cmwoI2Fycm93aGVhZCkiIHN0eWxlPSJmaWxsOiBub25lOyI+PC9saW5lPjx0ZXh0IHg9IjEwNDQiIHk9IjMyMCIgdGV4dC1hbmNob3I9Im1pZGRsZSIgZG9taW5hbnQtYmFzZWxpbmU9Im1pZGRsZSIgYWxpZ25tZW50LWJhc2VsaW5lPSJtaWRkbGUiIGNsYXNzPSJtZXNzYWdlVGV4dCIgZHk9IjFlbSIgc3R5bGU9ImZvbnQtc2l6ZTogMTZweDsgZm9udC13ZWlnaHQ6IDQwMDsiPkN1cnJlbnQgQmFsYW5jZSBSZXR1cm5lZDwvdGV4dD48bGluZSB4MT0iMTIyMy41IiB5MT0iMzUzIiB4Mj0iODYzLjUiIHkyPSIzNTMiIGNsYXNzPSJtZXNzYWdlTGluZTEiIHN0cm9rZS13aWR0aD0iMiIgc3Ryb2tlPSJub25lIiBtYXJrZXItZW5kPSJ1cmwoI2Fycm93aGVhZCkiIHN0eWxlPSJzdHJva2UtZGFzaGFycmF5OiAzLCAzOyBmaWxsOiBub25lOyI+PC9saW5lPjx0ZXh0IHg9IjI4NyIgeT0iMzY4IiB0ZXh0LWFuY2hvcj0ibWlkZGxlIiBkb21pbmFudC1iYXNlbGluZT0ibWlkZGxlIiBhbGlnbm1lbnQtYmFzZWxpbmU9Im1pZGRsZSIgY2xhc3M9Im1lc3NhZ2VUZXh0IiBkeT0iMWVtIiBzdHlsZT0iZm9udC1zaXplOiAxNnB4OyBmb250LXdlaWdodDogNDAwOyI+UHJvdmlkZSBSZWNpcGllbnQgVXNlcm5hbWUgJmFtcDsgQW1vdW50PC90ZXh0PjxsaW5lIHgxPSI4NS41IiB5MT0iNDAxIiB4Mj0iNDg4LjUiIHkyPSI0MDEiIGNsYXNzPSJtZXNzYWdlTGluZTAiIHN0cm9rZS13aWR0aD0iMiIgc3Ryb2tlPSJub25lIiBtYXJrZXItZW5kPSJ1cmwoI2Fycm93aGVhZCkiIHN0eWxlPSJmaWxsOiBub25lOyI+PC9saW5lPjx0ZXh0IHg9IjY3NSIgeT0iNDE2IiB0ZXh0LWFuY2hvcj0ibWlkZGxlIiBkb21pbmFudC1iYXNlbGluZT0ibWlkZGxlIiBhbGlnbm1lbnQtYmFzZWxpbmU9Im1pZGRsZSIgY2xhc3M9Im1lc3NhZ2VUZXh0IiBkeT0iMWVtIiBzdHlsZT0iZm9udC1zaXplOiAxNnB4OyBmb250LXdlaWdodDogNDAwOyI+dHJhbnNmZXJGdW5kcyhmcm9tVXNlciwgdG9Vc2VyLCBhbW91bnQpPC90ZXh0PjxsaW5lIHgxPSI0OTMuNSIgeTE9IjQ0OSIgeDI9Ijg1NS41IiB5Mj0iNDQ5IiBjbGFzcz0ibWVzc2FnZUxpbmUwIiBzdHJva2Utd2lkdGg9IjIiIHN0cm9rZT0ibm9uZSIgbWFya2VyLWVuZD0idXJsKCNhcnJvd2hlYWQpIiBzdHlsZT0iZmlsbDogbm9uZTsiPjwvbGluZT48dGV4dCB4PSIxMDQxIiB5PSI0NjQiIHRleHQtYW5jaG9yPSJtaWRkbGUiIGRvbWluYW50LWJhc2VsaW5lPSJtaWRkbGUiIGFsaWdubWVudC1iYXNlbGluZT0ibWlkZGxlIiBjbGFzcz0ibWVzc2FnZVRleHQiIGR5PSIxZW0iIHN0eWxlPSJmb250LXNpemU6IDE2cHg7IGZvbnQtd2VpZ2h0OiA0MDA7Ij5SZWFkIHNlbmRlciAmYW1wOyByZWNlaXZlciByZWNvcmRzPC90ZXh0PjxsaW5lIHgxPSI4NjAuNSIgeTE9IjQ5NyIgeDI9IjEyMjAuNSIgeTI9IjQ5NyIgY2xhc3M9Im1lc3NhZ2VMaW5lMCIgc3Ryb2tlLXdpZHRoPSIyIiBzdHJva2U9Im5vbmUiIG1hcmtlci1lbmQ9InVybCgjYXJyb3doZWFkKSIgc3R5bGU9ImZpbGw6IG5vbmU7Ij48L2xpbmU+PHRleHQgeD0iMTA0NCIgeT0iNTEyIiB0ZXh0LWFuY2hvcj0ibWlkZGxlIiBkb21pbmFudC1iYXNlbGluZT0ibWlkZGxlIiBhbGlnbm1lbnQtYmFzZWxpbmU9Im1pZGRsZSIgY2xhc3M9Im1lc3NhZ2VUZXh0IiBkeT0iMWVtIiBzdHlsZT0iZm9udC1zaXplOiAxNnB4OyBmb250LXdlaWdodDogNDAwOyI+QmFsYW5jZXMgcmV0cmlldmVkPC90ZXh0PjxsaW5lIHgxPSIxMjIzLjUiIHkxPSI1NDUiIHgyPSI4NjMuNSIgeTI9IjU0NSIgY2xhc3M9Im1lc3NhZ2VMaW5lMSIgc3Ryb2tlLXdpZHRoPSIyIiBzdHJva2U9Im5vbmUiIG1hcmtlci1lbmQ9InVybCgjYXJyb3doZWFkKSIgc3R5bGU9InN0cm9rZS1kYXNoYXJyYXk6IDMsIDM7IGZpbGw6IG5vbmU7Ij48L2xpbmU+PHRleHQgeD0iMTA0MSIgeT0iNTYwIiB0ZXh0LWFuY2hvcj0ibWlkZGxlIiBkb21pbmFudC1iYXNlbGluZT0ibWlkZGxlIiBhbGlnbm1lbnQtYmFzZWxpbmU9Im1pZGRsZSIgY2xhc3M9Im1lc3NhZ2VUZXh0IiBkeT0iMWVtIiBzdHlsZT0iZm9udC1zaXplOiAxNnB4OyBmb250LXdlaWdodDogNDAwOyI+VXBkYXRlIGJvdGggYWNjb3VudCBiYWxhbmNlcyBhdG9taWNhbGx5PC90ZXh0PjxsaW5lIHgxPSI4NjAuNSIgeTE9IjU5MyIgeDI9IjEyMjAuNSIgeTI9IjU5MyIgY2xhc3M9Im1lc3NhZ2VMaW5lMCIgc3Ryb2tlLXdpZHRoPSIyIiBzdHJva2U9Im5vbmUiIG1hcmtlci1lbmQ9InVybCgjYXJyb3doZWFkKSIgc3R5bGU9ImZpbGw6IG5vbmU7Ij48L2xpbmU+PHRleHQgeD0iMTA0MSIgeT0iNjA4IiB0ZXh0LWFuY2hvcj0ibWlkZGxlIiBkb21pbmFudC1iYXNlbGluZT0ibWlkZGxlIiBhbGlnbm1lbnQtYmFzZWxpbmU9Im1pZGRsZSIgY2xhc3M9Im1lc3NhZ2VUZXh0IiBkeT0iMWVtIiBzdHlsZT0iZm9udC1zaXplOiAxNnB4OyBmb250LXdlaWdodDogNDAwOyI+QXBwZW5kIHRyYW5zYWN0aW9ucyAodHJhbnNmZXJfaW4vb3V0KTwvdGV4dD48bGluZSB4MT0iODYwLjUiIHkxPSI2NDEiIHgyPSIxMjIwLjUiIHkyPSI2NDEiIGNsYXNzPSJtZXNzYWdlTGluZTAiIHN0cm9rZS13aWR0aD0iMiIgc3Ryb2tlPSJub25lIiBtYXJrZXItZW5kPSJ1cmwoI2Fycm93aGVhZCkiIHN0eWxlPSJmaWxsOiBub25lOyI+PC9saW5lPjx0ZXh0IHg9IjEwNDQiIHk9IjY1NiIgdGV4dC1hbmNob3I9Im1pZGRsZSIgZG9taW5hbnQtYmFzZWxpbmU9Im1pZGRsZSIgYWxpZ25tZW50LWJhc2VsaW5lPSJtaWRkbGUiIGNsYXNzPSJtZXNzYWdlVGV4dCIgZHk9IjFlbSIgc3R5bGU9ImZvbnQtc2l6ZTogMTZweDsgZm9udC13ZWlnaHQ6IDQwMDsiPlN1Y2Nlc3MgY29uZmlybWF0aW9uPC90ZXh0PjxsaW5lIHgxPSIxMjIzLjUiIHkxPSI2ODkiIHgyPSI4NjMuNSIgeTI9IjY4OSIgY2xhc3M9Im1lc3NhZ2VMaW5lMSIgc3Ryb2tlLXdpZHRoPSIyIiBzdHJva2U9Im5vbmUiIG1hcmtlci1lbmQ9InVybCgjYXJyb3doZWFkKSIgc3R5bGU9InN0cm9rZS1kYXNoYXJyYXk6IDMsIDM7IGZpbGw6IG5vbmU7Ij48L2xpbmU+PHRleHQgeD0iNjc4IiB5PSI3MDQiIHRleHQtYW5jaG9yPSJtaWRkbGUiIGRvbWluYW50LWJhc2VsaW5lPSJtaWRkbGUiIGFsaWdubWVudC1iYXNlbGluZT0ibWlkZGxlIiBjbGFzcz0ibWVzc2FnZVRleHQiIGR5PSIxZW0iIHN0eWxlPSJmb250LXNpemU6IDE2cHg7IGZvbnQtd2VpZ2h0OiA0MDA7Ij4i4pyFIFRyYW5zZmVyIGNvbXBsZXRlZCI8L3RleHQ+PGxpbmUgeDE9Ijg1OC41IiB5MT0iNzM3IiB4Mj0iNDk2LjUiIHkyPSI3MzciIGNsYXNzPSJtZXNzYWdlTGluZTEiIHN0cm9rZS13aWR0aD0iMiIgc3Ryb2tlPSJub25lIiBtYXJrZXItZW5kPSJ1cmwoI2Fycm93aGVhZCkiIHN0eWxlPSJzdHJva2UtZGFzaGFycmF5OiAzLCAzOyBmaWxsOiBub25lOyI+PC9saW5lPjx0ZXh0IHg9IjI5MCIgeT0iNzUyIiB0ZXh0LWFuY2hvcj0ibWlkZGxlIiBkb21pbmFudC1iYXNlbGluZT0ibWlkZGxlIiBhbGlnbm1lbnQtYmFzZWxpbmU9Im1pZGRsZSIgY2xhc3M9Im1lc3NhZ2VUZXh0IiBkeT0iMWVtIiBzdHlsZT0iZm9udC1zaXplOiAxNnB4OyBmb250LXdlaWdodDogNDAwOyI+RGlzcGxheSBuZXcgYmFsYW5jZSBhbmQgY29uZmlybWF0aW9uIG1lc3NhZ2U8L3RleHQ+PGxpbmUgeDE9IjQ5MS41IiB5MT0iNzg1IiB4Mj0iODguNSIgeTI9Ijc4NSIgY2xhc3M9Im1lc3NhZ2VMaW5lMSIgc3Ryb2tlLXdpZHRoPSIyIiBzdHJva2U9Im5vbmUiIG1hcmtlci1lbmQ9InVybCgjYXJyb3doZWFkKSIgc3R5bGU9InN0cm9rZS1kYXNoYXJyYXk6IDMsIDM7IGZpbGw6IG5vbmU7Ij48L2xpbmU+PHRleHQgeD0iNTk5Ljc1IiB5PSItMjUiPkJhbmtpbmcgTWFuYWdlbWVudCBTeXN0ZW0gLSBTZXF1ZW5jZSBEaWFncmFtIChUcmFuc2ZlciBGdW5kcyk8L3RleHQ+PC9zdmc+;" parent="1" vertex="1">
            <mxGeometry x="-360" y="900" width="1577" height="1075" as="geometry" />
          </mxCell>
        </UserObject>
      </root>
    </mxGraphModel>
  </diagram>
</mxfile>
